<svg id="Layer_1" data-name="Layer 1" xmlns="http://www.w3.org/2000/svg" viewBox="0 0 154.48 71.11"><defs><style>.cls-1{fill:#787632;}.cls-2{fill:#d4cac1;}.cls-3{fill:#db9704;}.cls-4{fill:#d0b16d;}.cls-5{fill:#00889e;}.cls-6{fill:#cf4132;}</style></defs><polygon class="cls-1" points="46.45 40.92 31.43 55.96 27.22 51.77 41.52 37.47 46.45 40.92"/><polygon class="cls-2" points="48.02 8.58 38.31 18.3 33.38 14.83 43.83 4.39 48.02 8.58"/><rect class="cls-3" x="31.77" y="55.54" width="16.58" height="5.93" transform="translate(-29.64 45.47) rotate(-45)"/><polygon class="cls-4" points="33.62 7.59 29.26 11.95 24.34 8.49 29.43 3.4 33.62 7.59"/><rect class="cls-5" x="-1.52" y="7.85" width="24.67" height="5.93" transform="translate(-4.48 10.82) rotate(-45)"/><polygon class="cls-1" points="63.27 24.12 55.49 31.88 53.68 25.32 59.07 19.92 63.27 24.12"/><polygon class="cls-4" points="18.4 22.81 9.87 31.34 5.67 27.15 15.2 17.63 18.4 22.81"/><polygon class="cls-2" points="24.26 32.34 20.88 35.73 16.68 31.53 21.07 27.15 24.26 32.34"/><polygon class="cls-6" points="48.94 23.05 52.27 35.1 52.27 35.11 49.29 38.09 31.86 25.85 37.3 34.7 29.65 42.35 25.46 38.15 29.8 33.81 18.08 14.75 21.5 11.33 43.89 27.05 42.3 21.3 48.22 15.38 52.41 19.57 48.94 23.05"/><path class="cls-6" d="M74.26,29V45.49H73V29Z"/><path class="cls-6" d="M76.73,36.26c0-2.63,0-3.29,0-4h1.22a13.27,13.27,0,0,1,.06,1.4,2.33,2.33,0,0,1,2.41-1.61c1.34,0,2.53.72,2.53,3.1V45.49H81.63V35.43c0-1.34-.44-2.15-1.56-2.15S78,33.87,78,36.87v8.62H76.73Z"/><path class="cls-6" d="M84.05,32.28h1.59V29h1.27v3.3h2v1.16h-2v9.62c0,.72.14,1.48,1,1.48a4.4,4.4,0,0,0,.91-.08v1a4.36,4.36,0,0,1-1.31.16c-1,0-1.87-.53-1.87-2.36V33.44H84.05Z"/><path class="cls-6" d="M91,39v2.31c0,1.53.28,3.21,1.8,3.21s1.71-1.08,1.71-2.57v-.14h1.27V42c0,1.63-.4,3.73-3,3.73-2.33,0-3-1.61-3-4.3V36.05c0-2.14.79-4,3.1-4s3,1.88,3,4v3Zm3.54-1.12V36.06c0-1.24-.13-2.85-1.73-2.85S91,34.55,91,36.08v1.84Z"/><path class="cls-6" d="M97.89,36.79c0-2.09,0-3.47,0-4.51H99.1c0,.41.06,1,.06,2a2.84,2.84,0,0,1,2.69-2.18v1.6c-1.72,0-2.67,1.36-2.67,3.52v8.26H97.89Z"/><path class="cls-6" d="M103,36.26c0-2.63,0-3.29,0-4h1.22a13.27,13.27,0,0,1,.06,1.4,2.33,2.33,0,0,1,2.41-1.61c1.34,0,2.53.72,2.53,3.1V45.49h-1.29V35.43c0-1.34-.44-2.15-1.56-2.15s-2.06.59-2.06,3.59v8.62H103Z"/><path class="cls-6" d="M117.12,43.5c0,1,0,1.68,0,2H116a7.75,7.75,0,0,1-.12-1.15,2.06,2.06,0,0,1-2.15,1.36c-1.85,0-2.58-1.59-2.58-3.66V41.8c0-2.8,1.61-4,4-4h.76V35.43c0-1.31-.25-2.19-1.46-2.19s-1.55.91-1.55,2.09v.45h-1.28v-.44c0-1.8.72-3.27,2.87-3.27s2.73,1.46,2.73,3.28Zm-1.28-4.59h-.79c-1.7,0-2.67.75-2.67,2.85V42c0,1.35.39,2.51,1.57,2.51,1.46,0,1.89-1.23,1.89-3.35Z"/><path class="cls-6" d="M118.21,32.28h1.59V29h1.27v3.3h2v1.16h-2v9.62c0,.72.14,1.48,1,1.48a4.4,4.4,0,0,0,.91-.08v1a4.32,4.32,0,0,1-1.31.16c-1,0-1.87-.53-1.87-2.36V33.44h-1.59Z"/><path class="cls-6" d="M124.44,32.28h1.29V45.49h-1.29Zm0-3.3h1.29v1.64h-1.29Z"/><path class="cls-6" d="M134.22,35.81v5.85c0,2.89-1.32,4-3.18,4s-3.11-1.09-3.11-3.93v-6c0-2.32,1.15-3.74,3.19-3.74S134.22,33.5,134.22,35.81Zm-5,0v6c0,1.7.6,2.72,1.83,2.72s1.84-.74,1.84-2.73v-6c0-1.5-.55-2.59-1.82-2.59S129.24,34.19,129.24,35.82Z"/><path class="cls-6" d="M136.44,36.26c0-2.63,0-3.29,0-4h1.22a12.53,12.53,0,0,1,.07,1.4,2.31,2.31,0,0,1,2.41-1.61c1.33,0,2.52.72,2.52,3.1V45.49h-1.28V35.43c0-1.34-.45-2.15-1.57-2.15s-2.05.59-2.05,3.59v8.62h-1.29Z"/><path class="cls-6" d="M150.57,43.5c0,1,0,1.68.06,2H149.4a9.38,9.38,0,0,1-.12-1.15,2,2,0,0,1-2.14,1.36c-1.86,0-2.59-1.59-2.59-3.66V41.8c0-2.8,1.62-4,3.95-4h.77V35.43c0-1.31-.26-2.19-1.46-2.19s-1.56.91-1.56,2.09v.45H145v-.44c0-1.8.72-3.27,2.87-3.27s2.73,1.46,2.73,3.28Zm-1.27-4.59h-.79c-1.71,0-2.67.75-2.67,2.85V42c0,1.35.38,2.51,1.57,2.51,1.45,0,1.89-1.23,1.89-3.35Z"/><path class="cls-6" d="M153.19,45.49V29h1.29V45.49Z"/><path class="cls-6" d="M73,50.11h1.29V56.6h4.16V50.11H79.7V66.63H78.42V57.78H74.26v8.85H73Z"/><path class="cls-6" d="M88.24,56.94v5.85c0,2.89-1.32,4.05-3.18,4.05S82,65.74,82,62.9v-6c0-2.31,1.14-3.74,3.18-3.74S88.24,54.64,88.24,56.94Zm-5,0v6c0,1.7.59,2.73,1.82,2.73s1.84-.74,1.84-2.74V57c0-1.5-.54-2.58-1.82-2.58S83.27,55.32,83.27,57Z"/><path class="cls-6" d="M91.22,62.85v.56c0,1.61.71,2.28,1.72,2.28,1.21,0,1.67-.77,1.67-2.22s-.47-2.2-1.91-3.17c-1.73-1.16-2.52-2.07-2.52-3.87S90.94,53.2,93,53.2c2.23,0,2.76,1.57,2.76,3.25v.66H94.49v-.67c0-1.27-.34-2.09-1.53-2.09-1,0-1.48.71-1.48,2s.37,1.77,1.78,2.73c1.68,1.13,2.67,2,2.67,4.22s-1,3.58-3.07,3.58c-2.31,0-3-1.62-3-3.39v-.6Z"/><path class="cls-6" d="M99,65.44v5.67H97.68V57.24c0-1.82,0-3,0-3.83h1.23c0,.31.06.78.06,1.49a2.29,2.29,0,0,1,2.36-1.7c1.79,0,2.66,1.17,2.66,3.8v5.74c0,2.85-1.21,4.1-2.79,4.1A2.08,2.08,0,0,1,99,65.44Zm3.68-2.65V57c0-1.88-.71-2.54-1.63-2.54C99.27,54.42,99,56,99,57.87V62c0,1.67.19,3.6,2,3.6C102.11,65.62,102.65,64.62,102.65,62.79Z"/><path class="cls-6" d="M106.29,53.41h1.29V66.63h-1.29Zm0-3.3h1.28v1.64H106.3Z"/><path class="cls-6" d="M109,53.41h1.6v-3.3h1.26v3.3h2v1.16h-2V64.2c0,.72.15,1.48,1,1.48a5.22,5.22,0,0,0,.91-.08v1a4.7,4.7,0,0,1-1.31.15c-1,0-1.87-.53-1.87-2.35V54.57H109Z"/><path class="cls-6" d="M120.69,64.64c0,1,0,1.68,0,2h-1.22a7.75,7.75,0,0,1-.12-1.15,2.06,2.06,0,0,1-2.15,1.36c-1.85,0-2.58-1.59-2.58-3.66v-.24c0-2.8,1.61-4,4-4h.76V56.57c0-1.31-.25-2.19-1.46-2.19s-1.55.9-1.55,2.09v.45h-1.28v-.44c0-1.8.72-3.28,2.87-3.28s2.73,1.47,2.73,3.29Zm-1.28-4.59h-.79c-1.7,0-2.67.75-2.67,2.84v.23c0,1.36.39,2.51,1.57,2.51,1.46,0,1.89-1.23,1.89-3.34Z"/><path class="cls-6" d="M123.31,66.63V50.11h1.29V66.63Z"/><path class="cls-5" d="M73,5.48h6.54V7.67H75.32v5.09h4v2.18h-4v8.12H73Z"/><path class="cls-5" d="M80.8,14.13c0-2.22,0-3.29,0-4.59H83c0,.3.08,1.35.08,2.15A2.92,2.92,0,0,1,86,9.34v2.91c-1.6,0-2.85.64-2.85,3.27v7.54H80.8Z"/><path class="cls-5" d="M89.33,16.88V19c0,1.17.26,2.31,1.41,2.31s1.33-1,1.33-2.1v-.08h2.3v.07c0,1.48-.32,4.11-3.59,4.11S87,21.26,87,18.52V13.83c0-1.93.64-4.5,3.75-4.5,2.77,0,3.64,1.94,3.64,4.49v3.06ZM92.15,15V13.49c0-1.25-.25-2.16-1.38-2.16s-1.42.8-1.42,2.17V15Z"/><path class="cls-5" d="M98.31,16.88V19c0,1.17.25,2.31,1.4,2.31s1.34-1,1.34-2.1v-.08h2.3v.07c0,1.48-.33,4.11-3.6,4.11S96,21.26,96,18.52V13.83c0-1.93.64-4.5,3.76-4.5,2.77,0,3.63,1.94,3.63,4.49v3.06ZM101.13,15V13.49c0-1.25-.25-2.16-1.38-2.16s-1.43.8-1.43,2.17V15Z"/><path class="cls-5" d="M104.35,9.54h1.48V6.26h2.35V9.54H110v2.07h-1.78v8.45c0,.66.1,1.24.93,1.24a3.63,3.63,0,0,0,.79-.08V23a4.17,4.17,0,0,1-1.57.25c-1.54,0-2.5-.55-2.5-2.78V11.61h-1.48Z"/><path class="cls-5" d="M118.49,13.56V19c0,2.91-1.42,4.32-3.81,4.32s-3.75-1.42-3.75-4.28V13.47c0-2.79,1.54-4.14,3.83-4.14S118.49,10.82,118.49,13.56Zm-5.2-.12v5.63c0,1.25.4,2.11,1.43,2.11s1.4-.69,1.4-2.15v-5.6c0-1.17-.34-2-1.41-2S113.29,12.13,113.29,13.44Z"/><path class="cls-5" d="M122.08,9.54c.9,6.69,1.13,8.59,1.25,10.23h0c.17-1.72.61-3.89,1.64-10.23h2.23c1,6.48,1.46,8.55,1.59,10.23h0c.13-1.46.26-2.92,1.28-10.23h2.37L130,23.06h-2.35c-.67-4.13-1.36-7.61-1.58-9.65h0c-.16,1.91-.83,5.13-1.66,9.65H122l-2.4-13.52Z"/><path class="cls-5" d="M133.83,13.69c0-2.74,0-3.52,0-4.15h2.25a8.81,8.81,0,0,1,.09,1.28,2.5,2.5,0,0,1,2.49-1.49c1.57,0,2.73.93,2.73,3.46V23.06H139V13.24c0-1.26-.43-1.79-1.27-1.79-1,0-1.54.53-1.54,2.67v8.94h-2.36Z"/></svg>